# xmcd CD database file
#
# Track frame offsets:
#	150
#	14123
#	32024
#	45241
#	67656
#	79465
#	96187
#	107786
#	131435
#
# Disc length: 2097 seconds
#
# Revision: 0
# Processed by: cddbd v1.5.2PL0 Copyright (c) Steve Scherf et al.
# Submitted via: CDex 1.40Release
#
DISCID=6d082f09
DTITLE=Raging Grace - Spitfire
DYEAR=2009
DGENRE=Blues
TTITLE0=Pick Me Up
TTITLE1=Always and Forever
TTITLE2=Velvet Plate
TTITLE3=Strength
TTITLE4=Rooted
TTITLE5=Big Story
TTITLE6=Hammer and Flame
TTITLE7=End of Your Days
TTITLE8=Advocate
EXTD=YEAR: 2009 ID3G: 0
EXTT0=
EXTT1=
EXTT2=
EXTT3=
EXTT4=
EXTT5=
EXTT6=
EXTT7=
EXTT8=
PLAYORDER=
